<?xml version="1.0" encoding="UTF-8"?><svg id="Layer_1" xmlns="http://www.w3.org/2000/svg" viewBox="0 0 535.69 716.56"><defs><style>.cls-1{fill:#c7daf6;stroke-width:0px;}</style></defs><path class="cls-1" d="m246.85,714.91c-1.92-17.33-.82-33.84,1.45-50.27,4.27-30.86,9.36-61.6,8.58-92.95-.97-39.39-7.37-77.77-21.17-114.7-9.1-24.34-24.85-44.55-42.35-63.38-11.62-12.51-23.71-24.57-35.07-36.3,8.91.24,35.62,19.06,58.27,41.65,17.38,17.34,32.84,36.12,45.16,58.03.44-6.88,1.11-13.75,1.28-20.63.87-34.38-3.12-68.38-9.44-102.04-6.14-32.7-13.67-65.15-20.58-97.71-.21-.97-.2-1.99-.29-2.99.55-.2,1.1-.39,1.65-.59,11.4,28.29,23.21,56.42,34.09,84.9,10.91,28.56,20.29,57.63,23.71,88.57,9.02-10.12,17.55-20.04,26.45-29.61,21.69-23.35,43.78-46.34,65.23-69.91,7.2-7.91,12.94-17.14,20.28-27.04-.99,3.57-1.44,5.89-2.27,8.06-6.2,16.15-16.12,30.1-26.27,43.88-13.88,18.84-28.67,37.07-41.69,56.48-13.97,20.84-25.84,43.21-29.9,68.27-2.13,13.13-1.8,26.96-.54,40.27,5.94,62.57,12.6,125.07,18.99,187.59,1.06,10.38,2.1,20.77,3.23,32.06-26.33-.55-52.3-1.09-78.83-1.65Z"/><path class="cls-1" d="m486.36,149.11c-6.21,33.04-6.4,65.54-18.06,95.78-9.05,23.46-22.71,44.13-41.7,60.9-7.18,6.34-15.41,10.92-26.2,12.97,16.23-27.78,28.72-55.66,28.52-88.8-20.09,25.42-42.67,47.64-58.3,75.38-.54-.08-1.09-.17-1.63-.25-.26-6.66-.71-13.31-.74-19.97-.12-31.3,9.72-58.36,32.51-80.73,16.12-15.82,33.84-29.02,53.83-39.31,10.05-5.17,20.2-10.17,31.76-15.97Z"/><path class="cls-1" d="m155.55,205.39c-26.14-22.26-54.81-37.8-88.01-48.39,17.37,30.78,39.29,55.83,64.64,78.11-.22.59-.43,1.17-.65,1.76-6.26-.73-12.71-.69-18.73-2.31-33.46-8.97-56.87-30.55-73.55-60.12-9.88-17.51-16.08-36.5-21.43-55.79-.13-.47.03-1.03.1-2.34,9.13,1.56,18.11,2.99,27.05,4.64,23.44,4.32,46.49,9.94,67.69,21.35,13.66,7.35,25.54,16.88,34.47,29.68,6.77,9.69,11.03,20.17,8.4,33.39Z"/><path class="cls-1" d="m292.49,223.47c-9.13-10.79-15.21-21.38-18.83-33.4-9.23-30.61-7.22-61.17.53-91.65,2.9-11.4,6.31-22.66,9.49-33.99.59.09,1.18.19,1.78.28.44.73.99,1.41,1.31,2.18,12.71,30.93,25.31,61.9,38.12,92.78,5.3,12.78,9.32,25.71,7.34,39.78-1.26,8.95-4.84,16.79-12.45,24.46-1.49-22.59-10.66-41.3-20.99-60.54-6.2,19.62-5.48,39.21-6.3,60.09Z"/><path class="cls-1" d="m230.44,264.35c-37.19-13.74-58.42-81.37-41.12-129.62,1.2.81,2.38,1.46,3.4,2.32,18.89,15.87,37.73,31.81,53.1,51.3,11.29,14.32,20.3,29.78,21.85,48.47.62,7.46-.43,14.63-7.22,20.64-11.82-27.35-27.95-51.12-48.86-73.47,1.13,28.62,8.4,54.44,18.84,80.37Z"/><path class="cls-1" d="m69.7,302.12c22.77-1.55,43.76-2.25,64.21,4.41,15.86,5.17,29.17,14.18,38.48,28.13,3.67,5.5,5.74,12.06,7.69,18.76-20.07-11.84-38.8-25.29-63.74-28.86,19.51,23.99,38.05,47.01,62.08,65.9-3.36-.34-6.73-.72-10.09-1.02-35.38-3.18-59.38-23.54-77.78-51.98-7.2-11.13-13.51-22.84-20.85-35.36Z"/><path class="cls-1" d="m454.68,380.67c-20.43-16.53-43.84-27.2-68.78-35.97,33.04-17.35,101.94,12.3,121.54,52.25-6.78.71-13.27,1.46-19.78,2.07-23.68,2.22-47.38,4.06-71.1.62-13.83-2.01-27.19-5.52-38.74-13.88-5.53-4-9.84-8.88-9.46-17.35,28.37,8.91,56.96,12.95,86.32,12.25Z"/><path class="cls-1" d="m363.48,0c7.35,21.63,14.54,42.39,13.93,64.78-.47,17.06-4.67,32.84-17.55,45.04-2.9,2.75-6.64,4.61-10.66,6.44,5.03-22.94,6.77-45.58,2.23-68.64-14.78,19.99-24.44,42.35-32.81,66.49-1.71-4.3-4.07-8.47-5.02-12.93-4.32-20.4.4-39.39,10.48-57.11,9.23-16.22,21.54-30.01,35.7-42.14.86-.74,2.06-1.09,3.7-1.93Z"/><path class="cls-1" d="m214.77,434.46c-19.13,4.3-35.7,10.48-51.23,19.27-4.68,2.65-9.19,5.58-15.14,9.22,24.73,3.16,47.74,1.82,72.46-3.1-2.01,2.95-2.95,4.9-4.39,6.37-12.4,12.68-28.07,18.62-45.21,20.73-23.2,2.85-44.87-3.53-66.02-12.26-.47-.19-.85-.58-1.79-1.23,22.06-19.75,42.7-40.63,72.65-47.29,10.56-2.35,21.1-2.77,31.05,2.48,2.36,1.24,4.32,3.25,7.63,5.81Z"/><path class="cls-1" d="m347.63,209.9c-.57-3.09-1.11-6.19-1.7-9.27-7.25-37.98,7.65-67.03,36.51-90.42,6.64-5.39,13.43-10.6,20.79-16.39,7.09,32.05,6.72,62.23-8.22,90.99-2.2,4.24-5.29,8.18-8.62,11.63-2.44,2.53-5.94,4.03-9.63,5.44,7.61-17.5,8.56-35.33,6.49-54.67-21.79,15.98-28.9,38.88-34.2,62.78l-1.42-.09Z"/><path class="cls-1" d="m407.19,506.48c-18.85-1.59-36.56-3.13-53.14-10.44-13.93-6.14-25.25-15.32-31.9-29.25-2.25-4.7-3.05-10.09-3.73-15.7,16.87,12.69,34.48,22.95,56.37,28.89-5.13-7.45-9.18-13.83-13.74-19.82-4.56-6.01-9.53-11.72-14.5-17.41-5.07-5.81-10.36-11.44-16.28-17.94,4.79.48,9.68.32,14.21,1.53,14.05,3.76,24.98,12.38,34.2,23.35,13.8,16.42,21.33,35.95,28.5,56.79Z"/><path class="cls-1" d="m26.4,410.84c20.64-14.84,41.25-29.69,68.45-29.2,10.03.18,19.7,2.09,28.13,7.99,2.3,1.61,4.33,3.63,7.8,6.58-22.34.73-42.46,4.3-62.35,13.86,22.87,7.8,45.49,11.12,68.67,11.38.25.53.49,1.06.74,1.58-3.29,2.47-6.32,5.46-9.93,7.31-14.96,7.69-30.93,7.73-46.91,4.63-19.52-3.78-36.92-12.89-53.89-22.84-.26-.15-.34-.6-.71-1.3Z"/><path class="cls-1" d="m301.52,234.58c26.85,16.91,48.98,37.36,52.77,71.37.82,7.34,1.21,14.72-3.47,22.19-7.15-18.3-16.55-34.45-31.36-48.97-.24,18.48.61,35.41,7.2,52.57-6.34-1.2-10.1-4.65-13.52-8.43-11.27-12.46-16.62-27.52-16.6-43.96.01-14.84,1.84-29.69,2.87-44.53.7-.08,1.4-.16,2.1-.24Z"/><path class="cls-1" d="m249.15,125.15c-6.48-16.31-14.59-31.14-28.34-44.01.8,21.89,5.16,41.82,12.4,63.15-3.99-1.9-7.02-2.75-9.31-4.53-8.13-6.32-12.49-15.16-15.48-24.75-6.15-19.72-4.78-39.83-2.95-59.95.26-2.84.69-5.67,1.04-8.52,31.42,6.96,56.62,52.97,42.64,78.63Z"/><path class="cls-1" d="m535.69,293.21c-23.29,18.23-44.03,40.19-76.38,40.03-6.68-.03-13.34-1.37-20.11-3.19,20.26-6.65,39.36-14.94,57.87-26.83-10.36-4.87-20.22-3.39-29.74-.68-9.41,2.68-18.47,6.54-28.39,10.13,5.64-7.64,10.16-15.45,18.75-19.81,25.81-13.13,51.52-12.42,78,.35Z"/><path class="cls-1" d="m0,214.51c22.9,4.63,44.79,8.57,60.56,26.47,5.57,6.33,9.62,13.48,10.28,22.12.14,1.84-.17,3.72-.32,6.66-13.2-12.91-26.93-22.98-44.34-29.51,8.38,18.38,19.35,33.57,32.16,47.53-.15.5-.3,1.01-.46,1.51-3.47-.57-7.09-.7-10.39-1.79-10.6-3.47-18.81-10.36-25.62-19.02-12.25-15.56-17.32-34.02-21.87-53.98Z"/><path class="cls-1" d="m235.61,290.21c-12.78-7.95-25.63-15.35-42.79-15.27,12.06,18.29,30.75,26.33,48.01,37.18-31.95,5.63-79.27-34.59-78.14-65.84,27.74,9.13,57.23,14.87,72.93,43.94Z"/><path class="cls-1" d="m437.33,151.73c10.87-12.78,19.14-25.86,24.44-41.95-15.43,8.06-27.7,18.54-40.35,29.83.31-3.03.24-6.16,1.01-9.06,3.18-11.95,10.41-21.24,20.07-28.63,11.91-9.12,25.69-13.89,41.13-17.4-3.97,21.84-6.75,43-23.25,58.77-6.02,5.75-12.92,9.74-23.06,8.45Z"/><path class="cls-1" d="m458.25,462.2c-16.78-.41-32.42-.68-47.37-6.21-8.06-2.98-15.47-7.19-20.6-14.18-2.82-3.84-4.36-8.61-5.64-13.64,14.57,7.67,29.05,13.96,45.95,16.84-10.15-14.1-22.58-24.55-35.85-34.17.11-.55.22-1.1.33-1.64,4.06.19,8.23-.14,12.17.65,13.81,2.75,24.73,10.41,33.55,21.12,7.47,9.06,12.72,19.4,17.46,31.23Z"/><path class="cls-1" d="m157.61,156.93c-27.82-9.67-48.07-62.42-35.17-92.14,14,4.37,41.71,52.99,41.97,75.38-7.75-13.37-14.28-26-28.01-33.71.25,10.26,3.48,18.89,7.74,27.08,4.18,8.03,9.01,15.72,13.46,23.4Z"/><path class="cls-1" d="m196.31,330.2c34.34,7.24,59.06,29.65,56.13,49.97-5-4.62-9.56-9.35-14.67-13.39-5.01-3.96-10.58-7.2-15.91-10.75-.59.44-1.19.89-1.78,1.33,5.22,10.44,10.44,20.89,16.02,32.04-3.45-1.17-7.12-1.88-10.25-3.57-9.92-5.35-16.86-13.72-20.61-24.13-3.55-9.87-5.79-20.21-8.92-31.48Z"/><path class="cls-1" d="m151.25,280.97c-12.99-5.21-25.82-10.35-38.65-15.5-.43.78-.86,1.56-1.28,2.34,6.77,13.65,19.4,19.99,33.41,24.92-21.44,9.05-52.7-13.72-57.09-41.15,31.83-2.85,54.6,7.68,63.61,29.39Z"/><path class="cls-1" d="m534.96,348.35c-25.15,15.44-48.58,15.59-54.37,4.13,10.42-1.28,20.91-2.56,31.4-3.85.07-.85.14-1.7.2-2.55-10.17-2.59-20.33-5.18-30.32-7.72,10.75-10.65,37.16-5.82,53.09,9.99Z"/><path class="cls-1" d="m30.8,335.94c19.8-8.3,44.46-3.26,50.8,10.18-8.58-1.23-17.2-2.46-25.82-3.69-.26.78-.52,1.56-.78,2.35,6.63,4.33,13.25,8.66,19.78,12.92-10.88,6.82-31.04-2.75-43.98-21.75Z"/><path class="cls-1" d="m292.86,327.81c22.06,10.81,28.1,30.19,22.1,41.18-4.51-7.42-9.02-14.84-13.52-22.26-.76.32-1.53.64-2.29.96,1.74,10.3,3.49,20.6,5.42,32.05-2.36-1.78-5.04-2.86-6.15-4.83-2.69-4.78-5.59-9.78-6.71-15.05-2.21-10.44-1.06-21.02,1.15-32.05Z"/><path class="cls-1" d="m503.72,231.1c1.85,19.94-7.81,35.8-21.01,36.25,3.34-6.41,6.72-12.91,10.11-19.41l-1.59-1.1c-3.63,2.86-7.42,5.55-10.84,8.64-3.42,3.1-6.48,6.61-9.69,9.94-.54-.21-1.09-.42-1.63-.63.61-2.91.34-6.52,2-8.6,4.41-5.52,9.15-11.01,14.7-15.3,5.13-3.97,11.48-6.36,17.95-9.79Z"/></svg>